<?xml version="1.0" encoding="UTF-8"?>
<svg width="791px" height="1279px" viewBox="0 0 791 1279" version="1.1" xmlns="http://www.w3.org/2000/svg" xmlns:xlink="http://www.w3.org/1999/xlink">
    <!-- Generator: Sketch 61 (89581) - https://sketch.com -->
    <title>Artboard</title>
    <desc>Created with Sketch.</desc>
    <g id="Artboard" stroke="none" stroke-width="1" fill="none" fill-rule="evenodd">
        <g id="309739" fill="#000000" fill-rule="nonzero">
            <g id="Group" transform="translate(395.300000, 639.400000) scale(-1, 1) rotate(-180.000000) translate(-395.300000, -639.400000) translate(0.100000, 0.300000)">
                <path d="M370.9,1277.9 C338.3,1275 328.2,1273.7 308.9,1269.4 C260.2,1258.8 217.1,1241 177.1,1215.2 C153.6,1199.9 134.2,1184 112.4,1162.1 C74.1,1123.6 44.3,1077.9 25.4,1029.1 C-0.8,961.2 -7.1,880.7 8.5,810.8 C15.7,778.5 31.1,738.5 48.1,707.9 C51.2,702.5 61.4,684.1 70.9,667 C97.7,618.8 106.4,604.7 160.9,521 C219.4,431.2 242.2,393.7 271,339.8 C328.9,231.8 370,121.8 393.5,12.1 C395,5 396.4,-0.4 396.6,0.1 C396.7,0.6 398.9,10.3 401.3,21.6 C429.9,153.2 478.5,271.3 560.7,409 C579.7,440.7 596.1,466.6 637.1,529.6 C700.4,626.7 708.1,639.8 740.8,705.3 C766.7,757.4 771.6,769.4 779.2,799 C787.4,830.9 790.4,855.3 790.302411,891 C790.2,924.9 788,946.3 781.4,976 C761.3,1067.1 703.8,1152.1 625.4,1207 C572.5,1244 506.9,1268.2 437.9,1276 C425.1,1277.5 380.5,1278.7 370.9,1277.9 Z" id="Path"></path>
            </g>
        </g>
        <polygon id="Star" stroke="#979797" fill="#D8D8D8" points="395.5 539.75 229.450666 627.047301 261.163267 442.14865 126.826534 311.202699 312.475333 284.22635 395.5 116 478.524667 284.22635 664.173466 311.202699 529.836733 442.14865 561.549334 627.047301"></polygon>
    </g>
</svg>